<svg xmlns="http://www.w3.org/2000/svg" width="256" height="368" viewBox="0 0 256 368" role="img">
<title>K Trefl</title>
  <rect x="4" y="4" width="248" height="360" rx="12" fill="#fffdf7" stroke="#d8cbb6" stroke-width="4"/>
  <rect x="13" y="13" width="230" height="342" rx="8" fill="none" stroke="rgba(15,23,42,0.08)" stroke-width="2"/>
  <g transform="translate(37 52) rotate(0)" fill="#2c3e50">
    <text x="0" y="0" text-anchor="middle" font-family="Inter,Arial,sans-serif" font-size="40" font-weight="900">K</text>
    <text x="0" y="34" text-anchor="middle" font-family="Arial,sans-serif" font-size="31" font-weight="900">♣</text>
  </g>
  <g transform="translate(219 316) rotate(180)" fill="#2c3e50">
    <text x="0" y="0" text-anchor="middle" font-family="Inter,Arial,sans-serif" font-size="40" font-weight="900">K</text>
    <text x="0" y="34" text-anchor="middle" font-family="Arial,sans-serif" font-size="31" font-weight="900">♣</text>
  </g>
  <g>
    
    <text x="128" y="198" text-anchor="middle" dominant-baseline="central" fill="#2c3e50" opacity="0.09" font-family="Arial,sans-serif" font-size="170" font-weight="900">♣</text>
    <path d="M75 119 99 87l29 38 29-38 24 32-11 33H86z" fill="#f2c14e" opacity="0.9"/>
    <circle cx="128" cy="145" r="51" fill="#2c3e50" opacity="0.18"/>
    <circle cx="128" cy="139" r="38" fill="#f4d3b4"/>
    <path d="M74 288c8-53 28-81 54-81s46 28 54 81z" fill="#2c3e50" opacity="0.24"/>
    <path d="M90 284c9-33 22-50 38-50s29 17 38 50z" fill="#2c3e50" opacity="0.42"/>
    <circle cx="115" cy="136" r="4" fill="#17202a"/>
    <circle cx="141" cy="136" r="4" fill="#17202a"/>
    <path d="M116 158c8 8 16 8 24 0" fill="none" stroke="#17202a" stroke-width="4" stroke-linecap="round"/>
    <circle cx="128" cy="237" r="12" fill="#2c3e50" opacity="0.55"/>
  </g>
</svg>
